<mxfile host="app.diagrams.net" modified="2022-01-28T12:02:24.662Z" agent="5.0 (Macintosh; Intel Mac OS X 10_15_7) AppleWebKit/537.36 (KHTML, like Gecko) Chrome/97.0.4692.99 Safari/537.36" etag="InQobMrjaV6zsSQIw9OV" version="16.1.4" type="github">
  <diagram name="Page-1" id="e3a06f82-3646-2815-327d-82caf3d4e204">
    <mxGraphModel dx="1445" dy="1129" grid="1" gridSize="10" guides="1" tooltips="1" connect="1" arrows="1" fold="1" page="1" pageScale="1.5" pageWidth="1169" pageHeight="826" background="none" math="0" shadow="0">
      <root>
        <mxCell id="0" style=";html=1;" />
        <mxCell id="1" style=";html=1;" parent="0" />
        <mxCell id="6a7d8f32e03d9370-60" value="EXSI&amp;nbsp; 虚拟服务&lt;br style=&quot;font-size: 12px&quot;&gt;&lt;font color=&quot;#333333&quot; face=&quot;arial&quot; style=&quot;font-size: 12px&quot;&gt;&lt;span style=&quot;font-size: 14.3052px&quot;&gt;&lt;b&gt;192.168.3.10&lt;/b&gt;&lt;/span&gt;&lt;/font&gt;" style="whiteSpace=wrap;html=1;fillColor=#d5e8d4;fontSize=14;strokeColor=none;verticalAlign=top;" parent="1" vertex="1">
          <mxGeometry x="660" y="70" width="460" height="280" as="geometry" />
        </mxCell>
        <mxCell id="6a7d8f32e03d9370-51" style="edgeStyle=none;rounded=0;html=1;startSize=10;endSize=10;jettySize=auto;orthogonalLoop=1;fontSize=14;endArrow=none;endFill=0;strokeWidth=2;" parent="1" source="JdBPFRA5h67HiYUnEUZj-7" target="JdBPFRA5h67HiYUnEUZj-1" edge="1">
          <mxGeometry relative="1" as="geometry">
            <mxPoint x="720" y="289" as="sourcePoint" />
            <mxPoint x="690" y="389" as="targetPoint" />
          </mxGeometry>
        </mxCell>
        <mxCell id="JdBPFRA5h67HiYUnEUZj-10" value="&lt;b&gt;IPTV&lt;/b&gt;" style="edgeLabel;html=1;align=center;verticalAlign=middle;resizable=0;points=[];" vertex="1" connectable="0" parent="6a7d8f32e03d9370-51">
          <mxGeometry x="0.1037" y="1" relative="1" as="geometry">
            <mxPoint as="offset" />
          </mxGeometry>
        </mxCell>
        <mxCell id="6a7d8f32e03d9370-15" value="供应商 联通" style="verticalLabelPosition=top;aspect=fixed;html=1;verticalAlign=bottom;strokeColor=none;shape=mxgraph.citrix.cache_server;fillColor=#66B2FF;gradientColor=#0066CC;fontSize=14;labelPosition=center;align=center;" parent="1" vertex="1">
          <mxGeometry x="290" y="390" width="71" height="97.5" as="geometry" />
        </mxCell>
        <mxCell id="6a7d8f32e03d9370-53" style="edgeStyle=none;rounded=0;html=1;startSize=10;endSize=10;jettySize=auto;orthogonalLoop=1;fontSize=14;endArrow=none;endFill=0;strokeWidth=2;" parent="1" source="JdBPFRA5h67HiYUnEUZj-30" target="6a7d8f32e03d9370-29" edge="1">
          <mxGeometry relative="1" as="geometry">
            <mxPoint x="1463.673446647781" y="431.5" as="sourcePoint" />
          </mxGeometry>
        </mxCell>
        <mxCell id="6a7d8f32e03d9370-54" style="edgeStyle=none;rounded=0;html=1;startSize=10;endSize=10;jettySize=auto;orthogonalLoop=1;fontSize=14;endArrow=none;endFill=0;strokeWidth=2;" parent="1" source="JdBPFRA5h67HiYUnEUZj-30" target="6a7d8f32e03d9370-28" edge="1">
          <mxGeometry relative="1" as="geometry">
            <mxPoint x="1450.493601570167" y="431.5" as="sourcePoint" />
          </mxGeometry>
        </mxCell>
        <mxCell id="6a7d8f32e03d9370-55" style="edgeStyle=none;rounded=0;html=1;startSize=10;endSize=10;jettySize=auto;orthogonalLoop=1;fontSize=14;endArrow=none;endFill=0;strokeWidth=2;" parent="1" source="JdBPFRA5h67HiYUnEUZj-30" target="6a7d8f32e03d9370-27" edge="1">
          <mxGeometry relative="1" as="geometry">
            <mxPoint x="1534.1800000000003" y="411.6187872763419" as="sourcePoint" />
          </mxGeometry>
        </mxCell>
        <mxCell id="6a7d8f32e03d9370-27" value="Client" style="verticalLabelPosition=top;aspect=fixed;html=1;verticalAlign=bottom;strokeColor=none;shape=mxgraph.citrix.thin_client;fillColor=#66B2FF;gradientColor=#0066CC;fontSize=14;labelPosition=center;align=center;" parent="1" vertex="1">
          <mxGeometry x="1060" y="931.25" width="71" height="71" as="geometry" />
        </mxCell>
        <mxCell id="6a7d8f32e03d9370-28" value="Client" style="verticalLabelPosition=top;aspect=fixed;html=1;verticalAlign=bottom;strokeColor=none;shape=mxgraph.citrix.thin_client;fillColor=#66B2FF;gradientColor=#0066CC;fontSize=14;labelPosition=center;align=center;" parent="1" vertex="1">
          <mxGeometry x="1110" y="804" width="71" height="71" as="geometry" />
        </mxCell>
        <mxCell id="6a7d8f32e03d9370-29" value="Client" style="verticalLabelPosition=top;aspect=fixed;html=1;verticalAlign=bottom;strokeColor=none;shape=mxgraph.citrix.thin_client;fillColor=#66B2FF;gradientColor=#0066CC;fontSize=14;labelPosition=center;align=center;" parent="1" vertex="1">
          <mxGeometry x="1120" y="650" width="71" height="71" as="geometry" />
        </mxCell>
        <mxCell id="6a7d8f32e03d9370-62" value="青年社区二期网络部署图" style="text;strokeColor=none;fillColor=none;html=1;fontSize=24;fontStyle=1;verticalAlign=middle;align=center;" parent="1" vertex="1">
          <mxGeometry x="499" y="30" width="861" height="40" as="geometry" />
        </mxCell>
        <mxCell id="JdBPFRA5h67HiYUnEUZj-1" value="" style="fontColor=#0066CC;verticalAlign=top;verticalLabelPosition=bottom;labelPosition=center;align=center;html=1;outlineConnect=0;fillColor=#CCCCCC;strokeColor=#6881B3;gradientColor=none;gradientDirection=north;strokeWidth=2;shape=mxgraph.networks.modem;" vertex="1" parent="1">
          <mxGeometry x="510" y="450" width="100" height="30" as="geometry" />
        </mxCell>
        <mxCell id="JdBPFRA5h67HiYUnEUZj-7" value="" style="fontColor=#0066CC;verticalAlign=top;verticalLabelPosition=bottom;labelPosition=center;align=center;html=1;outlineConnect=0;fillColor=#CCCCCC;strokeColor=#6881B3;gradientColor=none;gradientDirection=north;strokeWidth=2;shape=mxgraph.networks.monitor;" vertex="1" parent="1">
          <mxGeometry x="730" y="875" width="120" height="105" as="geometry" />
        </mxCell>
        <mxCell id="JdBPFRA5h67HiYUnEUZj-8" value="电视" style="text;html=1;strokeColor=none;fillColor=none;align=center;verticalAlign=middle;whiteSpace=wrap;rounded=0;" vertex="1" parent="1">
          <mxGeometry x="760" y="901.25" width="60" height="30" as="geometry" />
        </mxCell>
        <mxCell id="JdBPFRA5h67HiYUnEUZj-4" value="光猫" style="text;html=1;strokeColor=none;fillColor=none;align=center;verticalAlign=middle;whiteSpace=wrap;rounded=0;" vertex="1" parent="1">
          <mxGeometry x="530" y="480" width="60" height="30" as="geometry" />
        </mxCell>
        <mxCell id="JdBPFRA5h67HiYUnEUZj-14" style="edgeStyle=none;rounded=0;html=1;startSize=10;endSize=10;jettySize=auto;orthogonalLoop=1;fontSize=14;endArrow=none;endFill=0;strokeWidth=2;entryX=0.789;entryY=0.764;entryDx=0;entryDy=0;entryPerimeter=0;" edge="1" parent="1" source="JdBPFRA5h67HiYUnEUZj-1" target="6a7d8f32e03d9370-15">
          <mxGeometry relative="1" as="geometry">
            <mxPoint x="689.9995706028076" y="655" as="sourcePoint" />
            <mxPoint x="769.0605945499588" y="400.5" as="targetPoint" />
          </mxGeometry>
        </mxCell>
        <mxCell id="JdBPFRA5h67HiYUnEUZj-17" value="" style="fontColor=#0066CC;verticalAlign=top;verticalLabelPosition=bottom;labelPosition=center;align=center;html=1;outlineConnect=0;fillColor=#CCCCCC;strokeColor=#6881B3;gradientColor=none;gradientDirection=north;strokeWidth=2;shape=mxgraph.networks.nas_filer;" vertex="1" parent="1">
          <mxGeometry x="721.5" y="166" width="100" height="35" as="geometry" />
        </mxCell>
        <mxCell id="JdBPFRA5h67HiYUnEUZj-18" value="" style="fontColor=#0066CC;verticalAlign=top;verticalLabelPosition=bottom;labelPosition=center;align=center;html=1;outlineConnect=0;fillColor=#CCCCCC;strokeColor=#6881B3;gradientColor=none;gradientDirection=north;strokeWidth=2;shape=mxgraph.networks.nas_filer;" vertex="1" parent="1">
          <mxGeometry x="721.5" y="262" width="100" height="35" as="geometry" />
        </mxCell>
        <mxCell id="JdBPFRA5h67HiYUnEUZj-19" value="" style="fontColor=#0066CC;verticalAlign=top;verticalLabelPosition=bottom;labelPosition=center;align=center;html=1;outlineConnect=0;fillColor=#CCCCCC;strokeColor=#6881B3;gradientColor=none;gradientDirection=north;strokeWidth=2;shape=mxgraph.networks.nas_filer;" vertex="1" parent="1">
          <mxGeometry x="921.5" y="262" width="100" height="35" as="geometry" />
        </mxCell>
        <mxCell id="JdBPFRA5h67HiYUnEUZj-20" value="" style="fontColor=#0066CC;verticalAlign=top;verticalLabelPosition=bottom;labelPosition=center;align=center;html=1;outlineConnect=0;fillColor=#CCCCCC;strokeColor=#6881B3;gradientColor=none;gradientDirection=north;strokeWidth=2;shape=mxgraph.networks.nas_filer;" vertex="1" parent="1">
          <mxGeometry x="916.5" y="166" width="100" height="35" as="geometry" />
        </mxCell>
        <mxCell id="JdBPFRA5h67HiYUnEUZj-21" value="&lt;span style=&quot;background-color: rgb(255 , 255 , 255)&quot;&gt;&lt;font color=&quot;#333333&quot; face=&quot;arial&quot;&gt;&lt;span style=&quot;font-size: 14.3052px&quot;&gt;&lt;b&gt;iKuai 主路由&lt;/b&gt;&lt;/span&gt;&lt;/font&gt;&lt;br&gt;&lt;font color=&quot;#333333&quot; face=&quot;arial&quot;&gt;&lt;span style=&quot;font-size: 14.3052px&quot;&gt;&lt;b&gt;192.168.3.1&lt;/b&gt;&lt;/span&gt;&lt;/font&gt;&lt;br&gt;&lt;/span&gt;" style="text;html=1;strokeColor=none;fillColor=none;align=center;verticalAlign=middle;whiteSpace=wrap;rounded=0;" vertex="1" parent="1">
          <mxGeometry x="721.5" y="141" width="100" height="19" as="geometry" />
        </mxCell>
        <mxCell id="JdBPFRA5h67HiYUnEUZj-22" value="&lt;font color=&quot;#333333&quot; face=&quot;arial&quot;&gt;&lt;span style=&quot;background-color: rgb(255 , 255 , 255)&quot;&gt;&lt;b style=&quot;font-size: 14.3052px&quot;&gt;OpenWRT旁路由&lt;/b&gt;&lt;br&gt;&lt;span style=&quot;font-size: 14.3052px&quot;&gt;&lt;b&gt;192.168.3.2&lt;/b&gt;&lt;/span&gt;&lt;br&gt;&lt;/span&gt;&lt;/font&gt;" style="text;html=1;strokeColor=none;fillColor=none;align=center;verticalAlign=middle;whiteSpace=wrap;rounded=0;" vertex="1" parent="1">
          <mxGeometry x="901.5" y="136" width="130" height="19" as="geometry" />
        </mxCell>
        <mxCell id="JdBPFRA5h67HiYUnEUZj-23" value="&lt;span style=&quot;color: rgb(51 , 51 , 51) ; font-family: &amp;#34;arial&amp;#34; ; font-size: 14.3052px ; font-weight: 700 ; background-color: rgb(255 , 255 , 255)&quot;&gt;HassOS&lt;/span&gt;" style="text;html=1;strokeColor=none;fillColor=none;align=center;verticalAlign=middle;whiteSpace=wrap;rounded=0;" vertex="1" parent="1">
          <mxGeometry x="741.5" y="232" width="60" height="30" as="geometry" />
        </mxCell>
        <mxCell id="JdBPFRA5h67HiYUnEUZj-24" value="&lt;span style=&quot;color: rgb(51 , 51 , 51) ; font-family: &amp;#34;arial&amp;#34; ; font-size: 14.3052px ; font-weight: 700 ; background-color: rgb(255 , 255 , 255)&quot;&gt;CentOS7&lt;/span&gt;" style="text;html=1;strokeColor=none;fillColor=none;align=center;verticalAlign=middle;whiteSpace=wrap;rounded=0;" vertex="1" parent="1">
          <mxGeometry x="941.5" y="232" width="60" height="30" as="geometry" />
        </mxCell>
        <mxCell id="JdBPFRA5h67HiYUnEUZj-25" value="" style="fontColor=#0066CC;verticalAlign=top;verticalLabelPosition=bottom;labelPosition=center;align=center;html=1;outlineConnect=0;fillColor=#CCCCCC;strokeColor=#6881B3;gradientColor=none;gradientDirection=north;strokeWidth=2;shape=mxgraph.networks.server;" vertex="1" parent="1">
          <mxGeometry x="990" y="450.5" width="90" height="100" as="geometry" />
        </mxCell>
        <mxCell id="JdBPFRA5h67HiYUnEUZj-28" value="群晖NAS&amp;nbsp;&lt;span style=&quot;color: rgb(51 , 51 , 51) ; font-family: &amp;#34;microsoft yahei&amp;#34; , &amp;#34;tahoma&amp;#34; , &amp;#34;arial&amp;#34; , &amp;#34;helvetica&amp;#34; , sans-serif ; text-align: left&quot;&gt;DMZ主机&lt;/span&gt;&lt;br&gt;&lt;font color=&quot;#333333&quot; face=&quot;arial&quot;&gt;&lt;span style=&quot;font-size: 14.3052px&quot;&gt;&lt;b&gt;192.168.3.12&lt;/b&gt;&lt;/span&gt;&lt;/font&gt;" style="text;html=1;strokeColor=none;fillColor=none;align=center;verticalAlign=middle;whiteSpace=wrap;rounded=0;" vertex="1" parent="1">
          <mxGeometry x="960" y="410" width="150" height="29.5" as="geometry" />
        </mxCell>
        <mxCell id="JdBPFRA5h67HiYUnEUZj-30" value="" style="fontColor=#0066CC;verticalAlign=top;verticalLabelPosition=bottom;labelPosition=center;align=center;html=1;outlineConnect=0;fillColor=#CCCCCC;strokeColor=#6881B3;gradientColor=none;gradientDirection=north;strokeWidth=2;shape=mxgraph.networks.wireless_hub;" vertex="1" parent="1">
          <mxGeometry x="701.5" y="436.5" width="100" height="85" as="geometry" />
        </mxCell>
        <mxCell id="JdBPFRA5h67HiYUnEUZj-31" value="&lt;b&gt;&lt;br&gt;无线AP&lt;br&gt;华硕AX86U&lt;br&gt;192.168.3.3&lt;br&gt;&lt;/b&gt;" style="text;html=1;strokeColor=none;fillColor=none;align=center;verticalAlign=middle;whiteSpace=wrap;rounded=0;" vertex="1" parent="1">
          <mxGeometry x="706.5" y="526.5" width="90" height="27" as="geometry" />
        </mxCell>
        <mxCell id="JdBPFRA5h67HiYUnEUZj-32" style="edgeStyle=none;rounded=0;html=1;startSize=10;endSize=10;jettySize=auto;orthogonalLoop=1;fontSize=14;endArrow=none;endFill=0;strokeWidth=2;entryX=0.5;entryY=1;entryDx=0;entryDy=0;" edge="1" parent="1" source="JdBPFRA5h67HiYUnEUZj-30" target="6a7d8f32e03d9370-60">
          <mxGeometry relative="1" as="geometry">
            <mxPoint x="965.230576036866" y="473.5" as="sourcePoint" />
            <mxPoint x="960" y="400" as="targetPoint" />
          </mxGeometry>
        </mxCell>
        <mxCell id="JdBPFRA5h67HiYUnEUZj-33" style="edgeStyle=none;rounded=0;html=1;startSize=10;endSize=10;jettySize=auto;orthogonalLoop=1;fontSize=14;endArrow=none;endFill=0;strokeWidth=2;entryX=0.5;entryY=1;entryDx=0;entryDy=0;" edge="1" parent="1" source="JdBPFRA5h67HiYUnEUZj-25" target="6a7d8f32e03d9370-60">
          <mxGeometry relative="1" as="geometry">
            <mxPoint x="834.4911504424781" y="430.5" as="sourcePoint" />
            <mxPoint x="900" y="360" as="targetPoint" />
          </mxGeometry>
        </mxCell>
        <mxCell id="JdBPFRA5h67HiYUnEUZj-34" style="edgeStyle=none;rounded=0;html=1;startSize=10;endSize=10;jettySize=auto;orthogonalLoop=1;fontSize=14;endArrow=none;endFill=0;strokeWidth=2;entryX=0;entryY=0.5;entryDx=0;entryDy=0;" edge="1" parent="1" source="JdBPFRA5h67HiYUnEUZj-1" target="6a7d8f32e03d9370-60">
          <mxGeometry relative="1" as="geometry">
            <mxPoint x="593.730576036866" y="409.5" as="sourcePoint" />
            <mxPoint x="659.9957834101384" y="340" as="targetPoint" />
          </mxGeometry>
        </mxCell>
        <mxCell id="JdBPFRA5h67HiYUnEUZj-35" value="外网&lt;br&gt;&lt;div&gt;www.gengzx.com&lt;/div&gt;&lt;div&gt;home.gengzx.com&lt;/div&gt;&lt;div&gt;nas.gengzx.com&lt;/div&gt;&lt;div&gt;plex.gengzx.com&lt;/div&gt;" style="ellipse;shape=cloud;whiteSpace=wrap;html=1;fillColor=#FFD966;" vertex="1" parent="1">
          <mxGeometry x="1240" y="297" width="330" height="233" as="geometry" />
        </mxCell>
        <mxCell id="JdBPFRA5h67HiYUnEUZj-36" style="edgeStyle=none;rounded=0;html=1;startSize=10;endSize=10;jettySize=auto;orthogonalLoop=1;fontSize=14;endArrow=none;endFill=0;strokeWidth=2;" edge="1" parent="1" source="JdBPFRA5h67HiYUnEUZj-35" target="JdBPFRA5h67HiYUnEUZj-25">
          <mxGeometry relative="1" as="geometry">
            <mxPoint x="1310" y="293.7931034482758" as="sourcePoint" />
            <mxPoint x="1210" y="190" as="targetPoint" />
          </mxGeometry>
        </mxCell>
      </root>
    </mxGraphModel>
  </diagram>
</mxfile>
